<?xml version="1.0" encoding="UTF-8"?>
<svg id="Layer_1" data-name="Layer 1" xmlns="http://www.w3.org/2000/svg" viewBox="0 0 400.48 117.69">
  <defs>
    <style>
      .cls-1 {
        fill: #a85927;
      }

      .cls-2 {
        fill: #be5824;
      }

      .cls-3 {
        fill: #fff;
      }

      .cls-4 {
        fill: #4e96a1;
      }
    </style>
  </defs>
  <g>
    <path class="cls-3" d="M136,55.96l-.13-1.27,2.11-.35v-15.74l-2.11-.35.13-1.24,3.97.08,6.16-.08c1.67-.02,3.05.4,4.13,1.24,1.08.85,1.62,2.04,1.62,3.59,0,.7-.14,1.35-.43,1.93-.29.59-.65,1.08-1.08,1.47s-.99.77-1.69,1.13c-.69.36-1.34.65-1.94.86-.6.22-1.32.44-2.15.67h-2.48v6.43l3.24.35-.14,1.27-5.16-.08-4.05.08ZM142.11,46.24h1.84c.99,0,1.83-.37,2.51-1.11.68-.74,1.03-1.73,1.03-2.97,0-1.17-.34-2.1-1.01-2.79-.68-.69-1.54-1.04-2.61-1.04l-1.75.19v7.72Z"/>
    <path class="cls-3" d="M152.61,55.96l-.14-1.27,1.59-.32v-9.37l-1.59.08-.13-1.3,3.54-.78,1.46-.08.3,4.19,2.86-4.37h2.48v3.7h-2.73c-.52.23-1.2.83-2.03,1.78l-.38.41v5.72l2.86.32-.14,1.3-4.59-.08-3.38.08Z"/>
    <path class="cls-3" d="M175.42,47.78v1.46h-7.86c.09,1.31.47,2.37,1.15,3.17.67.8,1.58,1.2,2.71,1.2s2.28-.36,3.38-1.08l.59,1.21c-1.26,1.06-2.97,1.93-5.13,2.59-1.89,0-3.46-.59-4.7-1.78s-1.86-2.74-1.86-4.67c0-3.73,2.16-6.16,6.48-7.29,1.78,0,3.1.48,3.96,1.44.85.96,1.28,2.21,1.28,3.74ZM167.57,47.94l4.08-.24c0-1.12-.14-1.96-.42-2.54-.28-.58-.77-.86-1.47-.86-1.31,0-2.04,1.22-2.19,3.65Z"/>
    <path class="cls-3" d="M182.66,56.34c-1.75,0-3.14-.59-4.17-1.77-1.04-1.18-1.55-2.72-1.55-4.63,0-4.07,2.16-6.52,6.48-7.34.27,0,.66.08,1.17.24.51.16.9.32,1.15.46v-4.48l-1.57.05-.14-1.27,3.56-.84,1.92-.11v15.71c0,.77.14,1.38.43,1.81h1.19l.11,1.3-4.48.76-.84-2.27-3.27,2.38ZM183.31,53.5c.63,0,1.25-.24,1.86-.73l.57-.43v-7.05c-.49-.58-1.14-.86-1.97-.86-.88,0-1.58.42-2.08,1.27-.5.85-.76,2.02-.76,3.51,0,1.33.22,2.38.66,3.15.44.77,1.01,1.15,1.71,1.15Z"/>
    <path class="cls-3" d="M192.79,55.96l-.14-1.27,1.57-.32v-9.45l-1.57.11-.13-1.27,3.83-.76,1.65-.08v11.45l1.62.32-.14,1.27-3.35-.08-3.35.08ZM195.11,40.7l-.89-.19-.16-1.81.32-1.54,2.54-.16.89.16.19,1.84-.35,1.51-2.54.19Z"/>
    <path class="cls-3" d="M207.12,56.34c-1.94,0-3.52-.59-4.73-1.77-1.21-1.18-1.81-2.74-1.81-4.68,0-3.64,2.29-6.07,6.89-7.29,1.76,0,3.19.46,4.27,1.38v3.43h-3.13l-.59-2.78c-.25-.2-.58-.3-.97-.3-.68,0-1.26.4-1.74,1.2-.48.8-.72,1.88-.72,3.23s.37,2.54,1.11,3.47c.74.93,1.72,1.39,2.94,1.39.86,0,1.76-.32,2.7-.97l.7,1.21c-1.39,1.1-3.02,1.93-4.91,2.48Z"/>
    <path class="cls-3" d="M219.57,56.34c-2.86,0-4.29-1.42-4.29-4.27v-7.1h-2.43v-.49l1.05-1.08h1.43v-1.86l2.48-2h1.21v3.97h3.67v1.46h-3.65v7.24c0,.49.13.89.4,1.2s.59.47.97.47c.61,0,1.33-.23,2.16-.68l.57,1.21-3.59,1.92Z"/>
    <path class="cls-3" d="M224.24,55.96l-.14-1.27,1.57-.32v-9.45l-1.57.11-.13-1.27,3.83-.76,1.65-.08v11.45l1.62.32-.14,1.27-3.35-.08-3.35.08ZM226.56,40.7l-.89-.19-.16-1.81.32-1.54,2.54-.16.89.16.19,1.84-.35,1.51-2.54.19Z"/>
    <path class="cls-3" d="M237.25,56.34l-4.83-11.8-1.35-.32.14-1.24,3.59.08,3.08-.08.14,1.24-1.46.32,2.51,6.99.22,2.16,3-9.15-1.27-.32.14-1.24,2.51.05,2.13-.05.13,1.24-1.59.32-4.16,11.04-2.92.76Z"/>
    <path class="cls-3" d="M257.4,47.78v1.46h-7.86c.09,1.31.47,2.37,1.15,3.17.67.8,1.58,1.2,2.71,1.2s2.28-.36,3.38-1.08l.59,1.21c-1.26,1.06-2.97,1.93-5.13,2.59-1.89,0-3.46-.59-4.7-1.78s-1.86-2.74-1.86-4.67c0-3.73,2.16-6.16,6.48-7.29,1.78,0,3.1.48,3.96,1.44.85.96,1.28,2.21,1.28,3.74ZM249.54,47.94l4.08-.24c0-1.12-.14-1.96-.42-2.54-.28-.58-.77-.86-1.47-.86-1.31,0-2.04,1.22-2.19,3.65Z"/>
    <path class="cls-3" d="M265.58,55.96l-.14-1.27,2-.35v-15.71l-2.05-.38.13-1.24,2.54.08,4.4-.08,5.05,13.45-.03,2.19,5.56-15.63,3.7.08,3-.08.13,1.24-2.05.35v15.74l2,.35-.14,1.27-3.81-.08-4,.08-.14-1.27,2.11-.35v-12.39l.38-3.24-6.21,17.25h-2.54l-5.18-13.8-.78-3.29v15.47l2.02.35-.11,1.27-2.94-.08-2.92.08Z"/>
    <path class="cls-3" d="M296.76,56.34c-1.75,0-3.19-.61-4.33-1.82-1.14-1.21-1.71-2.79-1.71-4.71,0-3.83,2.38-6.24,7.15-7.21,1.76,0,3.22.6,4.37,1.81s1.73,2.78,1.73,4.72c0,3.83-2.4,6.24-7.21,7.21ZM297.6,54.74c1.51,0,2.27-1.48,2.27-4.43,0-1.98-.27-3.5-.82-4.55-.55-1.05-1.24-1.58-2.07-1.58-1.51,0-2.27,1.48-2.27,4.43,0,1.93.27,3.43.82,4.51.55,1.08,1.24,1.62,2.07,1.62Z"/>
    <path class="cls-3" d="M311.21,56.34c-1.75,0-3.14-.59-4.17-1.77s-1.55-2.72-1.55-4.63c0-4.07,2.16-6.52,6.48-7.34.27,0,.66.08,1.17.24.51.16.9.32,1.15.46v-4.48l-1.57.05-.13-1.27,3.56-.84,1.92-.11v15.71c0,.77.14,1.38.43,1.81h1.19l.11,1.3-4.48.76-.84-2.27-3.27,2.38ZM311.86,53.5c.63,0,1.25-.24,1.86-.73l.57-.43v-7.05c-.49-.58-1.14-.86-1.97-.86-.88,0-1.58.42-2.08,1.27s-.76,2.02-.76,3.51c0,1.33.22,2.38.66,3.15.44.77,1.01,1.15,1.71,1.15Z"/>
    <path class="cls-3" d="M332.29,47.78v1.46h-7.86c.09,1.31.47,2.37,1.15,3.17.68.8,1.58,1.2,2.71,1.2s2.28-.36,3.38-1.08l.59,1.21c-1.26,1.06-2.97,1.93-5.13,2.59-1.89,0-3.46-.59-4.7-1.78-1.24-1.19-1.86-2.74-1.86-4.67,0-3.73,2.16-6.16,6.48-7.29,1.78,0,3.1.48,3.96,1.44.85.96,1.28,2.21,1.28,3.74ZM324.44,47.94l4.08-.24c0-1.12-.14-1.96-.42-2.54-.28-.58-.77-.86-1.47-.86-1.31,0-2.04,1.22-2.19,3.65Z"/>
    <path class="cls-3" d="M333.27,55.96l-.13-1.27,1.57-.32v-15.61l-1.62.05-.14-1.3,3.86-.76,1.67-.08v17.69l1.62.32-.13,1.27-3.35-.08-3.35.08Z"/>
    <path class="cls-3" d="M341.58,55.96l-.13-1.27,1.57-.32v-9.45l-1.57.11-.14-1.27,3.83-.76,1.65-.08v11.45l1.62.32-.13,1.27-3.35-.08-3.35.08ZM343.9,40.7l-.89-.19-.16-1.81.32-1.54,2.54-.16.89.16.19,1.84-.35,1.51-2.54.19Z"/>
    <path class="cls-3" d="M350.09,55.96l-.13-1.27,1.57-.32v-9.37l-1.62.08-.14-1.3,3.86-.78,1.62-.08.05,2.24,4.08-2.56c1.58,0,2.68.3,3.28.89.6.59.91,1.69.91,3.29v7.59l1.65.32-.13,1.27-3.35-.08-3,.08-.14-1.27,1.11-.32v-7.4c0-1.06-.48-1.59-1.43-1.59-.61,0-1.4.34-2.35,1.03l-.62.4v7.56l1.16.32-.13,1.27-2.89-.08-3.35.08Z"/>
    <path class="cls-3" d="M371.79,62.55c-1.89,0-3.39-.27-4.51-.82-1.12-.55-1.67-1.4-1.67-2.55v-.62l3.19-1.97c-1.69-.47-2.54-1.48-2.54-3.02v-.54l2.86-1.73c-.86-.36-1.55-.89-2.05-1.58-.5-.69-.76-1.46-.76-2.31.02-1.24.5-2.23,1.46-2.96s2.43-1.35,4.43-1.85c2.12,0,3.69.74,4.7,2.21l1.21-2.21h1.86v2.81h-2.13l-.51.32c.13.41.19.78.19,1.11-.02,1.28-.5,2.29-1.44,3.04-.95.75-2.42,1.38-4.42,1.9-.65,0-1.14-.05-1.48-.16l-.89,1.11c0,.63.44.94,1.32.94h5c1.13,0,2.03.29,2.7.86.67.58,1,1.32,1,2.24,0,1.22-.66,2.3-1.97,3.23-1.31.93-3.16,1.78-5.54,2.55ZM372.41,60.52c1.08,0,1.93-.24,2.57-.72.63-.48.95-1.03.95-1.66,0-.95-.67-1.43-2-1.43h-3.94c-.67.65-1,1.21-1,1.7,0,.61.28,1.12.85,1.51.57.4,1.43.59,2.58.59ZM372.12,50.31c.59,0,1.05-.24,1.36-.73.32-.49.47-1.13.47-1.94,0-1.04-.19-1.9-.57-2.58-.38-.67-.94-1.01-1.67-1.01-.59,0-1.05.26-1.38.78-.32.52-.49,1.2-.49,2.03,0,1.03.19,1.86.57,2.5.38.64.95.96,1.7.96Z"/>
    <path class="cls-3" d="M136.14,83.96l-.14-1.27,1.57-.32v-9.45l-1.57.11-.13-1.27,3.83-.76,1.65-.08v11.45l1.62.32-.14,1.27-3.35-.08-3.35.08ZM138.46,68.7l-.89-.19-.16-1.81.32-1.54,2.54-.16.89.16.19,1.84-.35,1.51-2.54.19Z"/>
    <path class="cls-3" d="M144.64,83.96l-.13-1.27,1.57-.32v-9.37l-1.62.08-.13-1.3,3.86-.78,1.62-.08.05,2.24,4.08-2.56c1.58,0,2.68.3,3.28.89.6.59.9,1.69.9,3.29v7.59l1.65.32-.13,1.27-3.35-.08-3,.08-.13-1.27,1.11-.32v-7.4c0-1.06-.48-1.59-1.43-1.59-.61,0-1.4.34-2.35,1.03l-.62.4v7.56l1.16.32-.13,1.27-2.89-.08-3.35.08Z"/>
    <path class="cls-3" d="M167.62,83.96l-.14-1.27,2-.35v-15.71l-2.05-.38.13-1.24,2.54.08,4.4-.08,5.05,13.45-.03,2.19,5.56-15.63,3.7.08,3-.08.13,1.24-2.05.35v15.74l2,.35-.14,1.27-3.81-.08-4,.08-.14-1.27,2.11-.35v-12.39l.38-3.24-6.21,17.25h-2.54l-5.18-13.8-.78-3.29v15.47l2.02.35-.11,1.27-2.94-.08-2.92.08Z"/>
    <path class="cls-3" d="M204.48,75.78v1.46h-7.86c.09,1.31.47,2.37,1.15,3.17.67.8,1.58,1.2,2.71,1.2s2.28-.36,3.38-1.08l.59,1.21c-1.26,1.06-2.97,1.93-5.13,2.59-1.89,0-3.46-.59-4.7-1.78s-1.86-2.74-1.86-4.67c0-3.73,2.16-6.16,6.48-7.29,1.78,0,3.1.48,3.96,1.44.85.96,1.28,2.21,1.28,3.74ZM196.62,75.94l4.08-.24c0-1.12-.14-1.96-.42-2.54-.28-.58-.77-.86-1.47-.86-1.31,0-2.04,1.22-2.19,3.65Z"/>
    <path class="cls-3" d="M211.71,84.34c-1.75,0-3.14-.59-4.17-1.77-1.04-1.18-1.55-2.72-1.55-4.63,0-4.07,2.16-6.52,6.48-7.34.27,0,.66.08,1.17.24.51.16.9.32,1.15.46v-4.48l-1.57.05-.14-1.27,3.56-.84,1.92-.11v15.71c0,.77.14,1.38.43,1.81h1.19l.11,1.3-4.48.76-.84-2.27-3.27,2.38ZM212.36,81.5c.63,0,1.25-.24,1.86-.73l.57-.43v-7.05c-.49-.58-1.14-.86-1.97-.86-.88,0-1.58.42-2.08,1.27-.5.85-.76,2.02-.76,3.51,0,1.33.22,2.38.66,3.15.44.77,1.01,1.15,1.71,1.15Z"/>
    <path class="cls-3" d="M221.84,83.96l-.14-1.27,1.57-.32v-9.45l-1.57.11-.13-1.27,3.83-.76,1.65-.08v11.45l1.62.32-.14,1.27-3.35-.08-3.35.08ZM224.16,68.7l-.89-.19-.16-1.81.32-1.54,2.54-.16.89.16.19,1.84-.35,1.51-2.54.19Z"/>
    <path class="cls-3" d="M236.17,84.34c-1.94,0-3.52-.59-4.73-1.77-1.21-1.18-1.81-2.74-1.81-4.68,0-3.64,2.29-6.07,6.89-7.29,1.76,0,3.19.46,4.27,1.38v3.43h-3.13l-.59-2.78c-.25-.2-.58-.3-.97-.3-.68,0-1.26.4-1.74,1.2-.48.8-.72,1.88-.72,3.23s.37,2.54,1.11,3.47c.74.93,1.72,1.39,2.94,1.39.86,0,1.76-.32,2.7-.97l.7,1.21c-1.39,1.1-3.02,1.93-4.91,2.48Z"/>
    <path class="cls-3" d="M242.84,83.96l-.14-1.27,1.57-.32v-9.45l-1.57.11-.13-1.27,3.83-.76,1.65-.08v11.45l1.62.32-.14,1.27-3.35-.08-3.35.08ZM245.16,68.7l-.89-.19-.16-1.81.32-1.54,2.54-.16.89.16.19,1.84-.35,1.51-2.54.19Z"/>
    <path class="cls-3" d="M251.35,83.96l-.13-1.27,1.57-.32v-9.37l-1.62.08-.13-1.3,3.86-.78,1.62-.08.05,2.24,4.08-2.56c1.58,0,2.68.3,3.28.89.6.59.9,1.69.9,3.29v7.59l1.65.32-.13,1.27-3.35-.08-3,.08-.13-1.27,1.11-.32v-7.4c0-1.06-.48-1.59-1.43-1.59-.61,0-1.4.34-2.35,1.03l-.62.4v7.56l1.16.32-.13,1.27-2.89-.08-3.35.08Z"/>
    <path class="cls-3" d="M278.97,75.78v1.46h-7.86c.09,1.31.47,2.37,1.15,3.17.67.8,1.58,1.2,2.71,1.2s2.28-.36,3.38-1.08l.59,1.21c-1.26,1.06-2.97,1.93-5.13,2.59-1.89,0-3.46-.59-4.7-1.78s-1.86-2.74-1.86-4.67c0-3.73,2.16-6.16,6.48-7.29,1.78,0,3.1.48,3.96,1.44.85.96,1.28,2.21,1.28,3.74ZM271.11,75.94l4.08-.24c0-1.12-.14-1.96-.42-2.54-.28-.58-.77-.86-1.47-.86-1.31,0-2.04,1.22-2.19,3.65Z"/>
    <path class="cls-2" d="M292.49,65.03h3.7v.9l-2.48.35-2.62,16.35h6.24l2.57-3.71h1.03l-1.65,4.98h-13.31v-.9l2.43-.35,2.62-16.36-2.38-.35.27-.9h3.59Z"/>
    <path class="cls-2" d="M311.39,82.31l2.24-1.4.46.67-3.83,2.75-1.38-.86.27-1.59.46-1.16-3.83,3.62c-.45-.11-.89-.27-1.31-.49s-.8-.52-1.12-.92c-.32-.4-.58-.89-.78-1.48-.2-.59-.3-1.32-.3-2.19,0-1.78.43-3.3,1.28-4.55.85-1.25,2.07-2.27,3.66-3.06l1.62-.81c.25.02.55.06.91.12.35.06.72.15,1.12.26.4.11.8.23,1.2.36.41.14.79.27,1.15.39l-1.81,10.34ZM304.83,78.72c0,.95.19,1.73.57,2.34s.78,1.01,1.21,1.23l2.92-2.46,1.16-6.56c-.18-.13-.41-.24-.67-.34-.27-.1-.55-.19-.85-.27s-.59-.14-.88-.19-.55-.07-.78-.07c-.34.27-.67.61-.99,1.01-.31.41-.6.87-.85,1.4-.25.53-.46,1.12-.61,1.77-.15.65-.23,1.36-.23,2.13Z"/>
    <path class="cls-2" d="M322.92,70.84c.47.09.91.25,1.32.49s.78.55,1.09.94c.31.4.56.88.74,1.44.18.57.27,1.24.27,2.01,0,.85-.11,1.68-.32,2.5-.22.82-.54,1.58-.96,2.28-.42.7-.95,1.33-1.57,1.88-.62.55-1.35.99-2.17,1.31l-1.67.65c-.68-.07-1.39-.21-2.12-.4-.73-.2-1.47-.48-2.23-.84l2.94-16.88-2.62.73-.32-.84,4.75-1.49.65.62-1.35,7.83-.49,1.21,4.05-3.46ZM318.98,75.26l-1.13,6.4c.23.16.49.31.77.45.28.13.56.25.85.35.29.1.57.18.84.24.27.06.52.09.76.09.49-.22.9-.55,1.24-1,.34-.45.62-.96.84-1.53.22-.57.38-1.16.49-1.77.11-.61.16-1.21.16-1.78,0-1.21-.17-2.11-.5-2.71s-.69-.96-1.07-1.07l-3.24,2.32Z"/>
  </g>
  <g>
    <path class="cls-1" d="M48.53,36.12c.27-.8.7-1.56,1.33-2.2s1.4-1.07,2.2-1.33l-9.86-9.86c-1.35.99-2.66,2.05-3.89,3.18l10.21,10.21Z"/>
    <path class="cls-1" d="M56.85,34.86c-1.67-1.67-4.37-1.67-6.04,0-.66.66-1.05,1.49-1.19,2.35h0c-.03.17-.04.34-.05.51,0,.12,0,.24,0,.36,0,.13.02.26.04.39.02.13.04.26.07.39.04.16.09.33.14.49l.08.21c.09.21.2.41.32.61l.09.14c.14.21.3.41.49.6s.39.34.6.49l.14.09c.2.12.4.23.61.32l.21.08c.16.06.32.11.49.14.13.03.26.05.39.07.13.02.26.03.39.04.12,0,.24,0,.36,0,.17,0,.34-.02.51-.05h0c.86-.14,1.69-.52,2.35-1.19,1.67-1.67,1.67-4.37,0-6.04ZM55.7,39.76c-1.03,1.03-2.71,1.03-3.75,0-1.03-1.03-1.03-2.71,0-3.75,1.03-1.03,2.71-1.03,3.75,0s1.03,2.71,0,3.75Z"/>
    <path class="cls-1" d="M71.24,20.61c1.07,1.07,1.07,2.79,0,3.86s-2.79,1.07-3.86,0-1.07-2.79,0-3.86c1.07-1.07,2.79-1.07,3.86,0Z"/>
    <path class="cls-4" d="M33.52,39.49l-5.56.34c-1.01,2.09-1.85,4.27-2.53,6.53l9.16-1.41c.81-.12,1.63-.02,2.38.3l2.82,1.19c.98.41,1.23,1.69.48,2.44l-6.32,6.32c-.43.43-1,.68-1.6.7l-8.73.37c-.08,1.09-.13,2.19-.13,3.31,0,.73.02,1.46.06,2.18l5.88-.88c.79-.12,1.39.7,1.02,1.42-1.16,2.25-3.26,6.39-5.09,10.2.59,2,1.32,3.95,2.16,5.83,1.65-5.49,4.17-12.78,7.04-17.03,3.16-4.69,6.37-5.13,8.32-4.81,1.06.17,1.77,1.18,1.57,2.23l-2.31,12.36c-.04.19-.09.37-.17.55-2.17,7.26-4.47,13.43-6.92,18.29,1.13,1.27,2.34,2.48,3.61,3.62,1.54-6.23,3.52-12.12,6-17.62.24-.76,1.93-.72,2.06.07.9,2.79,3.44,18.28,5.56,26,2.01.8,4.08,1.46,6.22,1.97-5.12-10.04-6.46-25.22-6.63-27.5-.23-3.18,0-20.28,0-20.28,0-.82.99-1.23,1.57-.65l8.46,8.46c.58.58.9,1.36.9,2.18,0,0,1.01,27.74,1.3,38.77,1.29.14,2.59.22,3.91.25.03-4.58.69-12.03.69-12.03,0-.7.85-1.05,1.34-.56,0,0,7.52,8.41,10.77,11.09,1.68-.44,3.33-.99,4.93-1.62-5.02-4.5-12.65-13.84-12.65-13.84-.88-.88-1.38-2.08-1.38-3.33v-7.45c0-.97,1.18-1.46,1.86-.77l20.86,20.86c2.2-1.47,4.27-3.14,6.18-4.96L36.07,28.12c-1.82,1.91-3.48,3.97-4.94,6.16l3.16,3.16c.73.73.26,1.97-.77,2.04Z"/>
    <path class="cls-1" d="M73.19,60.78h0c-.03.17-.04.34-.05.51,0,.12,0,.24,0,.36,0,.13.02.26.04.39.02.13.04.26.07.39.04.16.08.32.14.48l.08.21c.09.21.2.41.32.61l.09.14c.14.21.3.41.49.6s.39.34.6.49l.14.09c.2.12.4.23.61.32l.21.08c.16.06.32.1.48.14.13.03.26.05.39.07.13.02.26.03.39.04.12,0,.24,0,.36,0,.17,0,.34-.02.51-.05h0c.86-.14,1.69-.52,2.35-1.19,1.67-1.67,1.67-4.37,0-6.04-.19-.19-.39-.34-.6-.49l-.14-.09c-.2-.12-.4-.23-.61-.32l-.21-.08c-.16-.06-.32-.1-.48-.14-.13-.03-.26-.05-.39-.07-.13-.02-.26-.03-.39-.04-.12,0-.24,0-.36,0-.17,0-.34.02-.51.05h0c-.86.14-1.69.52-2.35,1.19s-1.05,1.49-1.19,2.35ZM75.52,59.58c1.03-1.03,2.71-1.03,3.75,0s1.03,2.71,0,3.75c-1.03,1.03-2.71,1.03-3.75,0-1.03-1.03-1.03-2.71,0-3.75Z"/>
    <path class="cls-1" d="M107.47,34.88h-47.1l8.15-8.15c-.82-.15-1.6-.54-2.23-1.18-.69-.69-1.08-1.56-1.2-2.47l-9.5,9.5c.8.27,1.56.7,2.2,1.33,2.19,2.19,2.19,5.74,0,7.93-.64.64-1.4,1.07-2.2,1.33l16.51,16.51c.27-.8.7-1.56,1.33-2.2s1.4-1.07,2.2-1.33l-15.27-15.27h19.77l11.65,11.65h22.41c-.16-1.01-.36-2.01-.58-3h-20.59l-8.65-8.65h26.35c-.94-2.09-2.03-4.09-3.26-6Z"/>
    <path class="cls-1" d="M81.36,65.41c-.64.64-1.4,1.07-2.2,1.33l23.63,23.63c1.13-1.24,2.19-2.54,3.18-3.89l-22.53-22.54h10.78l10.22,10.22h7.91c.33-.99.64-1.98.91-3h-7.58l-7.22-7.22h16.07c.14-1.44.21-2.89.21-4.36,0-.21-.01-.43-.02-.64h-32.34c1.05,2.1.73,4.71-1.03,6.46Z"/>
    <path class="cls-1" d="M72.7,19.97c1.11,1.47,1.15,3.49.1,5h26.02c-2.19-1.88-4.56-3.56-7.08-5h-10.04v-4.24c-.99-.28-1.99-.54-3-.76v5h-6.01Z"/>
    <path class="cls-1" d="M67.74,13.99v4.58c.96-.38,2.03-.39,3-.04v-4.53c-.54-.02-1.09-.04-1.63-.04-.46,0-.91.02-1.37.03Z"/>
    <path class="cls-1" d="M52.33,32.51c.98-.27,2.02-.27,3,0v-16.43c-1.02.32-2.01.69-3,1.08v15.36Z"/>
  </g>
</svg>